<svg xmlns="http://www.w3.org/2000/svg" viewBox="0 0 64 64" aria-labelledby="title"
aria-describedby="desc" role="img" xmlns:xlink="http://www.w3.org/1999/xlink">
  <path data-name="layer1"
  d="M25.7 57.4L41.5 37h15a5 5 0 0 0 0-10h-15L25.7 6.6S24.6 5 23.5 5h-4.2a1.4 1.4 0 0 0-1.3.7c-.2.5.3 1.9.5 2.4L24.6 27H13.5L8 19.7a1.6 1.6 0 0 0-1.4-.7H3.5c-.4 0-1.3.1-.8 1.4S7.5 32 7.5 32 3.2 42.2 2.7 43.6s.5 1.4.8 1.4h3.1a1.6 1.6 0 0 0 1.4-.7l5.5-7.3h11.1l-6.1 18.9c-.2.5-.7 1.9-.5 2.4a1.3 1.3 0 0 0 1.3.7h4.2c1.1 0 2.2-1.6 2.2-1.6z"
  fill="white"></path>
</svg>