<svg width="262" height="56" viewBox="0 0 262 56" fill="#000000" xmlns="http://www.w3.org/2000/svg">
  <g clip-path="url(#clip0)">
    <path d="M53.2244 36.3009V22.6588C53.2244 22.6588 53.2244 22.3184 52.8404 22.3184C52.5 22.3184 52.5 22.6588 52.5 22.6588V36.3009C52.5 36.3009 52.5 36.6064 52.8753 36.6064C53.2594 36.6064 53.2244 36.3009 53.2244 36.3009Z" fill="white"/>
    <path d="M0 56H261.269V0H0V56ZM23.2344 36.606C23.5748 36.606 23.5748 36.3354 23.5748 36.3354V21.515H24.5262V36.3005C24.5262 36.3005 24.6047 37.4439 23.3042 37.4439C22.0037 37.4439 22.0125 36.3005 22.0125 36.3005V21.515H22.9638V36.2656C22.9638 36.2656 22.8853 36.606 23.2344 36.606ZM56.2357 39.8005H19.8828V38.2731H56.2357V39.8005ZM28 37.4439V21.515H28.7594L29.7107 30.0249V21.515H30.5137V37.4439H29.7107L28.7594 27.8691V37.4439H28ZM36.1521 28.5324V29.4052H35.1222V36.606H36.4925V37.4439H34.0574V21.515H36.1521V22.318H35.1222V28.5324H36.1521ZM40.8566 36.5885C41.101 36.606 41.101 36.3005 41.101 36.3005V32.6259C41.101 31.081 39.6172 27.712 39.6172 25.7132V22.6671C39.6172 22.6671 39.6172 21.5586 40.8741 21.5237C42.1309 21.4888 42.096 22.6671 42.096 22.6671V26.2456H41.1097V22.6671C41.1097 22.6671 41.1097 22.3267 40.8392 22.3267C40.5686 22.3267 40.6122 22.6671 40.6122 22.6671V26.2456C40.6122 27.4239 42.096 30.985 42.096 32.8616C42.096 33.6384 42.096 36.3092 42.096 36.3092C42.096 36.3092 42.096 37.4526 40.8392 37.4526C39.5823 37.4526 39.6172 36.3092 39.6172 36.3092V32.3117H40.6122V36.3092C40.6122 36.3005 40.6122 36.5711 40.8566 36.5885ZM46.818 22.318C46.4776 22.318 46.4776 22.6584 46.4776 22.6584V36.3005C46.4776 36.3005 46.5387 36.606 46.818 36.606C47.1234 36.606 47.1234 36.3005 47.1234 36.3005V32.303H48.0748V36.3005C48.0748 36.3005 48.0748 37.4439 46.818 37.4439C45.5611 37.4439 45.596 36.3005 45.596 36.3005V22.6584C45.596 22.6584 45.596 21.515 46.818 21.515C48.0399 21.515 48.0748 22.6584 48.0748 22.6584V26.2369H47.1234V22.6584C47.1234 22.6584 47.1234 22.318 46.818 22.318ZM51.5486 36.3005V22.6584C51.5486 22.6584 51.5486 21.515 52.884 21.515C54.2195 21.515 54.1409 22.6584 54.1409 22.6584V36.3005C54.1409 36.3005 54.1409 37.4439 52.8055 37.4439C51.5486 37.4439 51.5486 36.3005 51.5486 36.3005ZM19.8828 19.0623H56.2357V20.5898H19.8828V19.0623ZM22.8155 18.0848L38.0549 13.4327L53.0673 18.0848H48.6509L38.0549 14.8466L27.2319 18.0848H22.8155ZM19.8828 16.4439L38.0549 10.8404L56.2357 16.4439V18.0848L37.9414 12.5599L19.8828 18.0848V16.4439ZM17.8229 40.8653H58.217V42.384H17.8229V40.8653ZM60.1983 44.985H15.9202V43.4576H60.1983V44.985ZM259.69 54.4202H76.1097V1.5798H259.69V54.4202Z" fill="white"/>
    <path d="M218.048 33.935C216.887 35.0871 215.351 35.7243 213.71 35.7243C210.323 35.7243 207.565 32.9662 207.565 29.5796C207.565 26.1931 210.314 23.435 213.71 23.435C215.333 23.435 216.861 24.0634 218.021 25.2068L218.179 25.3639L220.972 19.42L220.867 19.3415C218.755 17.849 216.267 17.0547 213.675 17.0547C206.797 17.0547 201.211 22.6495 201.211 29.5185C201.211 36.3963 206.806 41.9824 213.675 41.9824C216.258 41.9824 218.737 41.1968 220.849 39.7043L220.954 39.6258L218.205 33.7779L218.048 33.935Z" fill="white"/>
    <path d="M235.747 35.7421C232.369 35.7421 229.62 32.9927 229.62 29.6149C229.62 26.2371 232.369 23.4877 235.747 23.4877C239.125 23.4877 241.874 26.2371 241.874 29.6149C241.874 32.9927 239.125 35.7421 235.747 35.7421ZM235.712 17.1074C228.852 17.1074 223.266 22.6935 223.266 29.5538C223.266 36.4142 228.852 42.0002 235.712 42.0002C242.572 42.0002 248.158 36.4142 248.158 29.5538C248.158 22.6935 242.581 17.1074 235.712 17.1074Z" fill="white"/>
    <path d="M99.5637 17.8496V30.7149C99.5637 31.7623 99.6684 33.3858 100.873 34.4855C101.397 34.9568 102.339 35.5853 104.015 35.5853C105.429 35.5853 106.529 35.1139 107.21 34.4855C108.309 33.4381 108.466 31.8671 108.466 30.7149V17.8496H115.999V31.4481C115.999 34.1189 115.737 36.6239 113.38 38.9282C110.71 41.5466 106.791 41.9656 104.015 41.9656C101.135 41.9656 97.2682 41.5466 94.5973 38.9282C92.4502 36.8334 92.0312 34.4855 92.0312 31.9194V17.8496H99.5637Z" fill="white"/>
    <path d="M121.846 17.8491H129.378V20.6247C131.682 17.692 134.397 17.2207 136.596 17.2207C138.639 17.2207 141.31 17.5873 143.291 19.5773C145.49 21.7768 145.647 24.5436 145.647 26.4289V41.1796H138.115V29.2045C138.115 27.6858 138.063 25.7569 136.858 24.5524C136.282 23.9763 135.339 23.505 133.987 23.505C132.416 23.505 131.421 24.1334 130.844 24.7619C129.588 26.0187 129.378 27.6945 129.378 29.2045V41.1883H121.846V17.8491Z" fill="white"/>
    <path d="M168.454 26.324C168.401 26.1145 168.035 24.6482 166.935 23.6008C166.097 22.8153 164.893 22.2916 163.374 22.2916C161.436 22.2916 160.284 23.0771 159.551 23.8103C158.975 24.4387 158.451 25.2766 158.242 26.324H168.454ZM175.41 30.819H157.989C157.989 32.0759 158.46 33.7517 159.403 34.7991C160.555 36.0559 162.126 36.2654 163.269 36.2654C164.369 36.2654 165.521 36.0559 166.307 35.5846C166.411 35.5322 167.302 34.9562 167.93 33.647L175.044 34.3801C173.996 37.6706 171.901 39.3988 170.549 40.2367C168.297 41.5983 165.783 41.9649 163.173 41.9649C159.673 41.9649 156.583 41.3365 153.86 38.6133C151.818 36.5709 150.352 33.4898 150.352 29.6145C150.352 26.2716 151.556 22.8153 153.913 20.4063C156.741 17.5784 160.241 17.0547 162.859 17.0547C165.478 17.0547 169.239 17.526 172.12 20.5634C174.895 23.4961 175.419 27.1532 175.419 30.0335V30.819H175.41Z" fill="white"/>
    <path d="M194.403 23.8113C193.251 23.1305 191.732 22.5021 190.274 22.5021C189.489 22.5021 188.598 22.7116 188.127 23.1829C187.865 23.4448 187.656 23.8637 187.656 24.2303C187.656 24.754 188.022 25.0682 188.389 25.2777C188.913 25.5919 189.698 25.749 190.641 26.0632L192.631 26.6916C193.94 27.1106 195.302 27.6343 196.497 28.734C197.859 29.9909 198.33 31.4049 198.33 33.1854C198.33 36.2752 196.969 38.2565 195.921 39.3039C193.617 41.6081 190.789 41.966 188.337 41.966C185.194 41.966 181.799 41.2852 178.762 38.6231L181.956 33.552C182.689 34.1804 183.737 34.9136 184.522 35.2802C185.57 35.8039 186.669 36.0133 187.664 36.0133C188.136 36.0133 189.34 36.0133 190.021 35.4896C190.492 35.1231 190.807 34.547 190.807 33.9709C190.807 33.552 190.65 33.0283 189.969 32.6093C189.445 32.2951 188.764 32.0857 187.664 31.7714L185.779 31.1954C184.418 30.7764 183.004 30.0433 182.009 29.0482C180.909 27.8961 180.333 26.5869 180.333 24.8063C180.333 22.5545 181.223 20.6779 182.585 19.4211C184.679 17.4834 187.499 17.0645 189.646 17.0645C193.093 17.0645 195.502 17.9547 197.388 19.0545L194.403 23.8113Z" fill="white"/>
  </g>
  <defs>
    <clipPath id="clip0">
      <rect width="261.269" height="56" fill="white"/>
    </clipPath>
  </defs>
</svg>
